G04 DesignSpark PCB Gerber Version 12.0 Build 5942*
G04 #@! TF.Part,Single*
G04 #@! TF.FileFunction,Copper,L1,Top*
G04 #@! TF.FilePolarity,Positive*
%FSLAX35Y35*%
%MOIN*%
G04 #@! TA.AperFunction,ComponentPad*
%AMT79*0 Octagon Pad at angle 0*4,1,8,-0.01631,-0.03937,0.01631,-0.03937,0.03937,-0.01631,0.03937,0.01631,0.01631,0.03937,-0.01631,0.03937,-0.03937,0.01631,-0.03937,-0.01631,-0.01631,-0.03937,0*%
%ADD79T79*%
%AMT20*0 Rounded Rectangle Pad at angle 0*4,1,60,-0.00984,-0.05906,0.00984,-0.05906,0.01249,-0.05891,0.01510,-0.05846,0.01764,-0.05773,0.02009,-0.05672,0.02241,-0.05544,0.02457,-0.05391,0.02655,-0.05214,0.02831,-0.05017,0.02984,-0.04800,0.03113,-0.04569,0.03214,-0.04324,0.03287,-0.04069,0.03332,-0.03808,0.03346,-0.03543,0.03346,0.03543,0.03331,0.03808,0.03287,0.04069,0.03214,0.04323,0.03113,0.04568,0.02985,0.04800,0.02831,0.05016,0.02655,0.05214,0.02457,0.05390,0.02241,0.05543,0.02009,0.05672,0.01765,0.05773,0.01510,0.05846,0.01249,0.05891,0.00984,0.05906,-0.00984,0.05906,-0.01249,0.05891,-0.01510,0.05846,-0.01764,0.05773,-0.02009,0.05672,-0.02241,0.05544,-0.02457,0.05391,-0.02655,0.05214,-0.02831,0.05017,-0.02984,0.04800,-0.03113,0.04569,-0.03214,0.04324,-0.03287,0.04069,-0.03332,0.03808,-0.03346,0.03543,-0.03346,-0.03543,-0.03331,-0.03808,-0.03287,-0.04069,-0.03214,-0.04323,-0.03113,-0.04568,-0.02985,-0.04800,-0.02831,-0.05016,-0.02655,-0.05214,-0.02457,-0.05390,-0.02241,-0.05543,-0.02009,-0.05672,-0.01765,-0.05773,-0.01510,-0.05846,-0.01249,-0.05891,-0.00984,-0.05906,0*%
%ADD20T20*%
%ADD75O,0.06299X0.13780*%
%ADD24O,0.07087X0.11811*%
G04 #@! TA.AperFunction,SMDPad,CuDef*
%ADD28R,0.05500X0.06000*%
G04 #@! TA.AperFunction,ComponentPad*
%ADD74R,0.06299X0.13780*%
%ADD21R,0.06693X0.11811*%
%ADD23R,0.07087X0.11811*%
%ADD78R,0.07874X0.07874*%
G04 #@! TD.AperFunction*
%ADD12C,0.00500*%
%ADD16C,0.03150*%
G04 #@! TA.AperFunction,ViaPad*
%ADD18C,0.04800*%
G04 #@! TD.AperFunction*
%ADD15C,0.05000*%
G04 #@! TA.AperFunction,ViaPad*
%ADD17C,0.05600*%
G04 #@! TD.AperFunction*
%ADD26C,0.07874*%
G04 #@! TA.AperFunction,WasherPad*
%ADD19C,0.13780*%
G04 #@! TA.AperFunction,SMDPad,CuDef*
%AMT27*0 Bullet Pad at angle 90*4,1,38,0.01969,-0.03937,0.01969,0.03937,0.01969,0.03937,0.01625,0.03922,0.01285,0.03877,0.00949,0.03803,0.00622,0.03700,0.00304,0.03568,-0.00000,0.03409,-0.00290,0.03225,-0.00563,0.03016,-0.00816,0.02784,-0.01048,0.02531,-0.01257,0.02258,-0.01441,0.01969,-0.01600,0.01664,-0.01731,0.01346,-0.01835,0.01019,-0.01909,0.00683,-0.01954,0.00343,-0.01969,-0.00000,-0.01954,-0.00344,-0.01909,-0.00684,-0.01835,-0.01020,-0.01731,-0.01347,-0.01600,-0.01665,-0.01441,-0.01969,-0.01257,-0.02259,-0.01048,-0.02531,-0.00815,-0.02785,-0.00562,-0.03017,-0.00290,-0.03226,0.00001,-0.03410,0.00305,-0.03569,0.00622,-0.03700,0.00950,-0.03804,0.01285,-0.03878,0.01626,-0.03923,0.01969,-0.03937,0*%
%ADD27T27*%
G04 #@! TA.AperFunction,ComponentPad*
%ADD71O,0.09843X0.05906*%
%ADD22O,0.11000X0.06000*%
%ADD73O,0.13780X0.06299*%
%ADD77O,0.11811X0.07874*%
G04 #@! TA.AperFunction,SMDPad,CuDef*
%ADD29R,0.06000X0.05500*%
G04 #@! TA.AperFunction,ComponentPad*
%ADD70R,0.09843X0.05906*%
G04 #@! TA.AperFunction,SMDPad,CuDef*
%AMT25*0 Bullet Pad at angle 270*4,1,38,-0.01969,0.03937,-0.01969,-0.03937,-0.01969,-0.03937,-0.01625,-0.03922,-0.01285,-0.03877,-0.00949,-0.03803,-0.00622,-0.03700,-0.00304,-0.03568,0.00000,-0.03409,0.00290,-0.03225,0.00563,-0.03016,0.00816,-0.02784,0.01048,-0.02531,0.01257,-0.02258,0.01441,-0.01969,0.01600,-0.01664,0.01731,-0.01346,0.01835,-0.01019,0.01909,-0.00683,0.01954,-0.00343,0.01969,0.00000,0.01954,0.00344,0.01909,0.00684,0.01835,0.01020,0.01731,0.01347,0.01600,0.01665,0.01441,0.01969,0.01257,0.02259,0.01048,0.02531,0.00815,0.02785,0.00562,0.03017,0.00290,0.03226,0.00001,0.03410,-0.00305,0.03569,-0.00622,0.03700,-0.00950,0.03804,-0.01285,0.03878,-0.01626,0.03923,-0.01969,0.03937,0*%
%ADD25T25*%
G04 #@! TA.AperFunction,ComponentPad*
%ADD72R,0.13780X0.06299*%
%ADD76R,0.11811X0.07874*%
G04 #@! TD.AperFunction*
X0Y0D02*
D02*
D12*
X3177Y250D02*
X273256D01*
Y261667D01*
X3177D01*
Y250D01*
D02*
D15*
X32705Y210683D02*
X72272D01*
X76799Y206156D01*
X94909D01*
Y206244D01*
X96789Y208124D01*
Y229069D01*
X86789D02*
X72783D01*
X63020Y238833D01*
Y243557D01*
X65382Y245919D01*
X189004D01*
X197665Y237258D01*
Y211136D01*
X196602Y209699D01*
X92717Y127809D02*
Y155368D01*
X141602Y37258D02*
Y26667D01*
X144909Y23360D01*
X200028D01*
X205539Y28872D01*
Y29384D01*
X206602Y30447D01*
Y42258D01*
X145697Y105762D02*
Y125447D01*
X146484D01*
X146102Y72809D02*
X147390D01*
X151602Y232809D02*
Y217179D01*
X147272Y212848D01*
X141760D01*
X133098Y204187D01*
Y199608D01*
X161602Y37258D02*
Y67455D01*
X166780Y72632D01*
X166602Y149935D02*
X137114D01*
X137035Y149856D01*
Y149033D01*
X132311Y144309D01*
X121102D01*
X166780Y72632D02*
X166957Y72809D01*
Y92455D01*
X166602Y99935D01*
X216602D02*
Y68006D01*
X206602Y58006D01*
Y42258D01*
X223650Y164817D02*
X196602D01*
X230961Y202809D02*
X222075D01*
D02*
D16*
X32705Y170683D02*
X31484D01*
X14201Y153400D01*
Y64817D01*
X20106Y58911D01*
X32193D01*
X33098Y59817D01*
X32705Y180683D02*
X42035D01*
X49634Y173085D01*
Y85215D01*
X51602Y83247D01*
X61816D01*
X32705Y190683D02*
X71406D01*
X75224Y186864D01*
Y97184D01*
X71287Y93247D01*
X61816D01*
X32705Y190683D02*
Y200683D01*
X133098Y199608D02*
X139398Y193309D01*
X146602D01*
X137102Y62809D02*
Y72809D01*
Y62809D02*
X122602D01*
X121102Y64309D01*
X144122Y139620D02*
X194240D01*
X196602Y141982D01*
Y149935D01*
X146102Y62809D02*
Y55356D01*
X151602Y49856D01*
Y37258D01*
X146602Y193309D02*
Y173089D01*
X137823Y164309D01*
X121102D01*
X146602Y202309D02*
X156602D01*
X147390Y72809D02*
X166602D01*
X166780Y72632D01*
X156602Y193309D02*
X146602D01*
X166602Y99935D02*
Y108163D01*
X168531Y110093D01*
X185028D01*
X186602Y108518D01*
Y99935D01*
X166602Y193309D02*
X171181D01*
X171681Y192809D01*
X181602D01*
X166602Y202309D02*
Y214148D01*
X161602Y219148D01*
Y232809D01*
X166602Y202309D02*
X156602D01*
X178768Y214423D02*
X175539D01*
X171602Y218360D01*
Y232809D01*
X181602Y172809D02*
X161209D01*
X156602Y177415D01*
Y193309D01*
X181602Y192809D02*
Y202809D01*
X184673Y214423D02*
X191878D01*
X196602Y209699D01*
Y99935D02*
Y90053D01*
X186602Y80053D01*
Y42258D01*
X211602Y192809D02*
Y182809D01*
X221287Y245919D02*
X213177D01*
X211602Y244344D01*
Y202809D01*
X227193Y245919D02*
Y245132D01*
X237035D01*
X240972Y241195D01*
Y232809D01*
X230961Y192809D02*
X211602D01*
X230961Y212809D02*
Y213884D01*
X220972Y223872D01*
Y232809D01*
X230961Y212809D02*
Y202809D01*
X239961D02*
Y212809D01*
Y202809D02*
Y192809D01*
Y212809D02*
Y217797D01*
X236248Y221510D01*
X234122D01*
X230972Y224659D01*
Y232809D01*
D02*
D17*
X92717Y127809D03*
Y155368D03*
X133098Y199608D03*
X145697Y105762D03*
X146484Y125447D03*
X196602Y164817D03*
Y209699D03*
X222075Y202809D03*
X223650Y164817D03*
D02*
D18*
X144122Y139620D03*
D02*
D19*
X19713Y15998D03*
Y244344D03*
X258295Y15998D03*
Y244344D03*
D02*
D70*
X61816Y173247D03*
D02*
D71*
Y33247D03*
Y43247D03*
Y53247D03*
Y63247D03*
Y73247D03*
Y83247D03*
Y93247D03*
Y103247D03*
Y113247D03*
Y123247D03*
Y133247D03*
Y143247D03*
Y153247D03*
Y163247D03*
X121102Y34309D03*
Y44309D03*
Y54309D03*
Y64309D03*
Y74309D03*
Y84309D03*
Y94309D03*
Y104309D03*
Y114309D03*
Y124309D03*
Y134309D03*
Y144309D03*
Y154309D03*
Y164309D03*
Y174309D03*
D02*
D20*
X176602Y99935D03*
Y149935D03*
X186602Y99935D03*
Y149935D03*
X196602Y99935D03*
Y149935D03*
X206602Y99935D03*
Y149935D03*
X216602Y99935D03*
Y149935D03*
D02*
D21*
X166602Y99935D03*
Y149935D03*
D02*
D22*
X181602Y172809D03*
Y182809D03*
Y192809D03*
Y202809D03*
X211602Y172809D03*
Y182809D03*
Y192809D03*
Y202809D03*
D02*
D23*
X141602Y37258D03*
X171602Y232809D03*
X240972D03*
D02*
D24*
X151602Y37258D03*
Y232809D03*
X161602Y37258D03*
Y232809D03*
X220972D03*
X230972D03*
D02*
D25*
X184673Y214423D03*
X227193Y245919D03*
D02*
D27*
X178768Y214423D03*
X221287Y245919D03*
D02*
D28*
X146602Y193309D03*
Y202309D03*
X156602Y193309D03*
Y202309D03*
X166602Y193309D03*
Y202309D03*
D02*
D29*
X137102Y62809D03*
Y72809D03*
X146102Y62809D03*
Y72809D03*
X230961Y192809D03*
Y202809D03*
Y212809D03*
X239961Y192809D03*
Y202809D03*
Y212809D03*
D02*
D72*
X33098Y142809D03*
D02*
D73*
Y112809D03*
Y122809D03*
Y132809D03*
D02*
D74*
X96789Y229069D03*
X186602Y42258D03*
D02*
D75*
X86789Y229069D03*
X196602Y42258D03*
X206602D03*
X216602D03*
D02*
D76*
X33098Y89817D03*
D02*
D77*
Y39817D03*
Y49817D03*
Y59817D03*
Y69817D03*
Y79817D03*
D02*
D78*
X32705Y210683D03*
D02*
D79*
Y170683D03*
Y180683D03*
Y190683D03*
Y200683D03*
X0Y0D02*
M02*
