G04 DesignSpark PCB Gerber Version 12.0 Build 5942*
G04 #@! TF.Part,Single*
G04 #@! TF.FileFunction,Soldermask,Bot*
G04 #@! TF.FilePolarity,Negative*
%FSLAX35Y35*%
%MOIN*%
G04 #@! TA.AperFunction,ComponentPad*
%ADD121O,0.06899X0.14380*%
%ADD115O,0.07687X0.12411*%
G04 #@! TA.AperFunction,SMDPad,CuDef*
%ADD117R,0.06100X0.06600*%
G04 #@! TA.AperFunction,ComponentPad*
%ADD120R,0.06899X0.14380*%
%ADD112R,0.07293X0.12411*%
%ADD114R,0.07687X0.12411*%
%ADD124R,0.08474X0.08474*%
G04 #@! TA.AperFunction,ViaPad*
%ADD107C,0.05400*%
%ADD106C,0.06200*%
G04 #@! TA.AperFunction,ComponentPad*
%ADD110O,0.10443X0.06506*%
%ADD113O,0.11600X0.06600*%
%ADD119O,0.14380X0.06899*%
%ADD123O,0.12411X0.08474*%
G04 #@! TA.AperFunction,SMDPad,CuDef*
%ADD116R,0.06600X0.06100*%
G04 #@! TA.AperFunction,ComponentPad*
%ADD109R,0.10443X0.06506*%
%ADD118R,0.14380X0.06899*%
G04 #@! TA.AperFunction,WasherPad*
%ADD108C,0.14380*%
G04 #@! TA.AperFunction,ComponentPad*
%AMT125*0 Octagon Pad at angle 0*4,1,8,-0.01754,-0.04237,0.01754,-0.04237,0.04237,-0.01754,0.04237,0.01754,0.01754,0.04237,-0.01754,0.04237,-0.04237,0.01754,-0.04237,-0.01754,-0.01754,-0.04237,0*%
%ADD125T125*%
%AMT111*0 Rounded Rectangle Pad at angle 0*4,1,64,-0.01108,-0.06206,0.01108,-0.06206,0.01373,-0.06192,0.01636,-0.06150,0.01893,-0.06081,0.02141,-0.05986,0.02377,-0.05865,0.02600,-0.05720,0.02806,-0.05553,0.02994,-0.05365,0.03161,-0.05159,0.03306,-0.04936,0.03427,-0.04700,0.03522,-0.04452,0.03591,-0.04195,0.03633,-0.03932,0.03646,-0.03667,0.03646,0.03667,0.03633,0.03932,0.03591,0.04195,0.03522,0.04452,0.03427,0.04700,0.03306,0.04936,0.03161,0.05159,0.02994,0.05365,0.02806,0.05553,0.02600,0.05720,0.02377,0.05865,0.02141,0.05986,0.01893,0.06081,0.01636,0.06150,0.01373,0.06192,0.01108,0.06206,-0.01108,0.06206,-0.01373,0.06192,-0.01636,0.06150,-0.01893,0.06081,-0.02141,0.05986,-0.02377,0.05865,-0.02600,0.05720,-0.02806,0.05553,-0.02994,0.05365,-0.03161,0.05159,-0.03306,0.04936,-0.03427,0.04700,-0.03522,0.04452,-0.03591,0.04195,-0.03633,0.03932,-0.03646,0.03667,-0.03646,-0.03667,-0.03633,-0.03932,-0.03591,-0.04195,-0.03522,-0.04452,-0.03427,-0.04700,-0.03306,-0.04936,-0.03161,-0.05159,-0.02994,-0.05365,-0.02806,-0.05553,-0.02600,-0.05720,-0.02377,-0.05865,-0.02141,-0.05986,-0.01893,-0.06081,-0.01636,-0.06150,-0.01373,-0.06192,-0.01108,-0.06206,0*%
%ADD111T111*%
%ADD122R,0.12411X0.08474*%
G04 #@! TD.AperFunction*
X0Y0D02*
D02*
D106*
X92717Y127809D03*
Y155368D03*
X133098Y199608D03*
X145697Y105762D03*
X146484Y125447D03*
X196602Y164817D03*
Y209699D03*
X222075Y202809D03*
X223650Y164817D03*
D02*
D107*
X144122Y139620D03*
D02*
D108*
X19713Y15998D03*
Y244344D03*
X258295Y15998D03*
Y244344D03*
D02*
D109*
X61816Y173247D03*
D02*
D110*
Y33247D03*
Y43247D03*
Y53247D03*
Y63247D03*
Y73247D03*
Y83247D03*
Y93247D03*
Y103247D03*
Y113247D03*
Y123247D03*
Y133247D03*
Y143247D03*
Y153247D03*
Y163247D03*
X121102Y34309D03*
Y44309D03*
Y54309D03*
Y64309D03*
Y74309D03*
Y84309D03*
Y94309D03*
Y104309D03*
Y114309D03*
Y124309D03*
Y134309D03*
Y144309D03*
Y154309D03*
Y164309D03*
Y174309D03*
D02*
D111*
X176602Y99935D03*
Y149935D03*
X186602Y99935D03*
Y149935D03*
X196602Y99935D03*
Y149935D03*
X206602Y99935D03*
Y149935D03*
X216602Y99935D03*
Y149935D03*
D02*
D112*
X166602Y99935D03*
Y149935D03*
D02*
D113*
X181602Y172809D03*
Y182809D03*
Y192809D03*
Y202809D03*
X211602Y172809D03*
Y182809D03*
Y192809D03*
Y202809D03*
D02*
D114*
X141602Y37258D03*
X171602Y232809D03*
X240972D03*
D02*
D115*
X151602Y37258D03*
Y232809D03*
X161602Y37258D03*
Y232809D03*
X220972D03*
X230972D03*
D02*
D116*
X83717Y164817D03*
X92717D03*
D02*
D117*
X166602Y124096D03*
Y133096D03*
X196602Y183309D03*
Y192309D03*
D02*
D118*
X33098Y142809D03*
D02*
D119*
Y112809D03*
Y122809D03*
Y132809D03*
D02*
D120*
X96789Y229069D03*
X186602Y42258D03*
D02*
D121*
X86789Y229069D03*
X196602Y42258D03*
X206602D03*
X216602D03*
D02*
D122*
X33098Y89817D03*
D02*
D123*
Y39817D03*
Y49817D03*
Y59817D03*
Y69817D03*
Y79817D03*
D02*
D124*
X32705Y210683D03*
D02*
D125*
Y170683D03*
Y180683D03*
Y190683D03*
Y200683D03*
X0Y0D02*
M02*
