G05
M48
;#@! TF.GenerationSoftware,DesignSpark,DesignSpark PCB,12.0.5940
;#@! TF.CreationDate,2026-04-29T14:25:33+00:00*
;#@! TF.FileFunction,Plated,1,2,PTH
;FILE_FORMAT=3:5
;TYPE=PLATED
INCH,TZ
FMAT,2
T1C000.02400
T2C000.03200
T3C000.03500
T4C000.03937
T5C000.04331
T6C000.12598
%
T001
X1.44122Y1.39620
T002
X0.92717Y1.27809
X0.92717Y1.55368
X1.33098Y1.99608
X1.45697Y1.05762
X1.46484Y1.25447
X1.81602Y1.72809
X1.81602Y1.82809
X1.81602Y1.92809
X1.81602Y2.02809
X1.96602Y1.64817
X1.96602Y2.09699
X2.11602Y1.72809
X2.11602Y1.82809
X2.11602Y1.92809
X2.11602Y2.02809
X2.22075Y2.02809
X2.23650Y1.64817
T003
X0.32705Y1.70683
X0.32705Y1.80683
X0.32705Y1.90683
X0.32705Y2.00683
X0.32705Y2.10683
T004
X0.33098Y0.39817
X0.33098Y0.49817
X0.33098Y0.59817
X0.33098Y0.69817
X0.33098Y0.79817
X0.33098Y0.89817
X0.33098Y1.12809
X0.33098Y1.22809
X0.33098Y1.32809
X0.33098Y1.42809
X0.61816Y0.33247
X0.61816Y0.43247
X0.61816Y0.53247
X0.61816Y0.63247
X0.61816Y0.73247
X0.61816Y0.83247
X0.61816Y0.93247
X0.61816Y1.03247
X0.61816Y1.13247
X0.61816Y1.23247
X0.61816Y1.33247
X0.61816Y1.43247
X0.61816Y1.53247
X0.61816Y1.63247
X0.61816Y1.73247
X1.21102Y0.34309
X1.21102Y0.44309
X1.21102Y0.54309
X1.21102Y0.64309
X1.21102Y0.74309
X1.21102Y0.84309
X1.21102Y0.94309
X1.21102Y1.04309
X1.21102Y1.14309
X1.21102Y1.24309
X1.21102Y1.34309
X1.21102Y1.44309
X1.21102Y1.54309
X1.21102Y1.64309
X1.21102Y1.74309
X1.66602Y0.99935
X1.66602Y1.49935
X1.76602Y0.99935
X1.76602Y1.49935
X1.86602Y0.42258
X1.86602Y0.99935
X1.86602Y1.49935
X1.96602Y0.42258
X1.96602Y0.99935
X1.96602Y1.49935
X2.06602Y0.42258
X2.06602Y0.99935
X2.06602Y1.49935
X2.16602Y0.42258
X2.16602Y0.99935
X2.16602Y1.49935
T005
X0.86789Y2.29069
X0.96789Y2.29069
X1.41602Y0.37258
X1.51602Y0.37258
X1.51602Y2.32809
X1.61602Y0.37258
X1.61602Y2.32809
X1.71602Y2.32809
X2.20972Y2.32809
X2.30972Y2.32809
X2.40972Y2.32809
T006
X0.19713Y0.15998
X0.19713Y2.44344
X2.58295Y0.15998
X2.58295Y2.44344
M30
