G04 DesignSpark PCB Gerber Version 12.0 Build 5942*
G04 #@! TF.Part,Single*
G04 #@! TF.FileFunction,Soldermask,Top*
G04 #@! TF.FilePolarity,Negative*
%FSLAX35Y35*%
%MOIN*%
G04 #@! TA.AperFunction,ComponentPad*
%ADD96O,0.07299X0.14780*%
%ADD87O,0.08087X0.12811*%
G04 #@! TA.AperFunction,SMDPad,CuDef*
%ADD91R,0.06500X0.07000*%
G04 #@! TA.AperFunction,ComponentPad*
%ADD95R,0.07299X0.14780*%
%ADD84R,0.07693X0.12811*%
%ADD86R,0.08087X0.12811*%
%ADD99R,0.08874X0.08874*%
G04 #@! TD.AperFunction*
%ADD89C,0.08874*%
G04 #@! TA.AperFunction,SMDPad,CuDef*
%AMT90*0 Bullet Pad at angle 90*4,1,41,0.02469,-0.04437,0.02469,0.04437,0.01969,0.04437,0.01602,0.04422,0.01238,0.04377,0.00879,0.04302,0.00528,0.04197,0.00186,0.04063,-0.00144,0.03902,-0.00459,0.03715,-0.00757,0.03502,-0.01037,0.03265,-0.01296,0.03005,-0.01533,0.02725,-0.01746,0.02427,-0.01934,0.02112,-0.02095,0.01782,-0.02229,0.01441,-0.02333,0.01089,-0.02409,0.00730,-0.02454,0.00366,-0.02469,-0.00000,-0.02454,-0.00367,-0.02408,-0.00731,-0.02333,-0.01090,-0.02228,-0.01441,-0.02095,-0.01783,-0.01934,-0.02113,-0.01746,-0.02428,-0.01533,-0.02726,-0.01296,-0.03006,-0.01037,-0.03265,-0.00757,-0.03502,-0.00458,-0.03715,-0.00143,-0.03903,0.00186,-0.04064,0.00528,-0.04198,0.00880,-0.04302,0.01239,-0.04378,0.01602,-0.04423,0.01969,-0.04437,0.02469,-0.04437,0*%
%ADD90T90*%
G04 #@! TA.AperFunction,ComponentPad*
%ADD82O,0.10843X0.06906*%
%ADD85O,0.12000X0.07000*%
%ADD94O,0.14780X0.07299*%
%ADD98O,0.12811X0.08874*%
G04 #@! TA.AperFunction,SMDPad,CuDef*
%ADD92R,0.07000X0.06500*%
G04 #@! TA.AperFunction,ComponentPad*
%ADD81R,0.10843X0.06906*%
%ADD93R,0.14780X0.07299*%
G04 #@! TA.AperFunction,WasherPad*
%ADD80C,0.14780*%
G04 #@! TA.AperFunction,ComponentPad*
%AMT100*0 Octagon Pad at angle 0*4,1,8,-0.01837,-0.04437,0.01837,-0.04437,0.04437,-0.01837,0.04437,0.01837,0.01837,0.04437,-0.01837,0.04437,-0.04437,0.01837,-0.04437,-0.01837,-0.01837,-0.04437,0*%
%ADD100T100*%
%AMT83*0 Rounded Rectangle Pad at angle 0*4,1,64,-0.01191,-0.06406,0.01191,-0.06406,0.01468,-0.06391,0.01743,-0.06348,0.02011,-0.06276,0.02270,-0.06176,0.02518,-0.06050,0.02751,-0.05899,0.02967,-0.05724,0.03164,-0.05528,0.03339,-0.05311,0.03491,-0.05078,0.03617,-0.04831,0.03717,-0.04571,0.03789,-0.04303,0.03832,-0.04028,0.03846,-0.03750,0.03846,0.03750,0.03832,0.04027,0.03789,0.04302,0.03717,0.04570,0.03617,0.04830,0.03491,0.05077,0.03340,0.05310,0.03165,0.05526,0.02969,0.05723,0.02752,0.05898,0.02519,0.06050,0.02272,0.06176,0.02012,0.06276,0.01744,0.06348,0.01469,0.06391,0.01191,0.06406,-0.01191,0.06406,-0.01468,0.06391,-0.01743,0.06348,-0.02011,0.06276,-0.02270,0.06176,-0.02518,0.06050,-0.02751,0.05899,-0.02967,0.05724,-0.03164,0.05528,-0.03339,0.05311,-0.03491,0.05078,-0.03617,0.04831,-0.03717,0.04571,-0.03789,0.04303,-0.03832,0.04028,-0.03846,0.03750,-0.03846,-0.03750,-0.03832,-0.04027,-0.03789,-0.04302,-0.03717,-0.04570,-0.03617,-0.04830,-0.03491,-0.05077,-0.03340,-0.05310,-0.03165,-0.05526,-0.02969,-0.05723,-0.02752,-0.05898,-0.02519,-0.06050,-0.02272,-0.06176,-0.02012,-0.06276,-0.01744,-0.06348,-0.01469,-0.06391,-0.01191,-0.06406,0*%
%ADD83T83*%
G04 #@! TA.AperFunction,SMDPad,CuDef*
%AMT88*0 Bullet Pad at angle 270*4,1,41,-0.02469,0.04437,-0.02469,-0.04437,-0.01969,-0.04437,-0.01602,-0.04422,-0.01238,-0.04377,-0.00879,-0.04302,-0.00528,-0.04197,-0.00186,-0.04063,0.00144,-0.03902,0.00459,-0.03715,0.00757,-0.03502,0.01037,-0.03265,0.01296,-0.03005,0.01533,-0.02725,0.01746,-0.02427,0.01934,-0.02112,0.02095,-0.01782,0.02229,-0.01441,0.02333,-0.01089,0.02409,-0.00730,0.02454,-0.00366,0.02469,0.00000,0.02454,0.00367,0.02408,0.00731,0.02333,0.01090,0.02228,0.01441,0.02095,0.01783,0.01934,0.02113,0.01746,0.02428,0.01533,0.02726,0.01296,0.03006,0.01037,0.03265,0.00757,0.03502,0.00458,0.03715,0.00143,0.03903,-0.00186,0.04064,-0.00528,0.04198,-0.00880,0.04302,-0.01239,0.04378,-0.01602,0.04423,-0.01969,0.04437,-0.02469,0.04437,0*%
%ADD88T88*%
G04 #@! TA.AperFunction,ComponentPad*
%ADD97R,0.12811X0.08874*%
G04 #@! TD.AperFunction*
X0Y0D02*
D02*
D80*
X19713Y15998D03*
Y244344D03*
X258295Y15998D03*
Y244344D03*
D02*
D81*
X61816Y173247D03*
D02*
D82*
Y33247D03*
Y43247D03*
Y53247D03*
Y63247D03*
Y73247D03*
Y83247D03*
Y93247D03*
Y103247D03*
Y113247D03*
Y123247D03*
Y133247D03*
Y143247D03*
Y153247D03*
Y163247D03*
X121102Y34309D03*
Y44309D03*
Y54309D03*
Y64309D03*
Y74309D03*
Y84309D03*
Y94309D03*
Y104309D03*
Y114309D03*
Y124309D03*
Y134309D03*
Y144309D03*
Y154309D03*
Y164309D03*
Y174309D03*
D02*
D83*
X176602Y99935D03*
Y149935D03*
X186602Y99935D03*
Y149935D03*
X196602Y99935D03*
Y149935D03*
X206602Y99935D03*
Y149935D03*
X216602Y99935D03*
Y149935D03*
D02*
D84*
X166602Y99935D03*
Y149935D03*
D02*
D85*
X181602Y172809D03*
Y182809D03*
Y192809D03*
Y202809D03*
X211602Y172809D03*
Y182809D03*
Y192809D03*
Y202809D03*
D02*
D86*
X141602Y37258D03*
X171602Y232809D03*
X240972D03*
D02*
D87*
X151602Y37258D03*
Y232809D03*
X161602Y37258D03*
Y232809D03*
X220972D03*
X230972D03*
D02*
D88*
X184673Y214423D03*
X227193Y245919D03*
D02*
D90*
X178768Y214423D03*
X221287Y245919D03*
D02*
D91*
X146602Y193309D03*
Y202309D03*
X156602Y193309D03*
Y202309D03*
X166602Y193309D03*
Y202309D03*
D02*
D92*
X137102Y62809D03*
Y72809D03*
X146102Y62809D03*
Y72809D03*
X230961Y192809D03*
Y202809D03*
Y212809D03*
X239961Y192809D03*
Y202809D03*
Y212809D03*
D02*
D93*
X33098Y142809D03*
D02*
D94*
Y112809D03*
Y122809D03*
Y132809D03*
D02*
D95*
X96789Y229069D03*
X186602Y42258D03*
D02*
D96*
X86789Y229069D03*
X196602Y42258D03*
X206602D03*
X216602D03*
D02*
D97*
X33098Y89817D03*
D02*
D98*
Y39817D03*
Y49817D03*
Y59817D03*
Y69817D03*
Y79817D03*
D02*
D99*
X32705Y210683D03*
D02*
D100*
Y170683D03*
Y180683D03*
Y190683D03*
Y200683D03*
X0Y0D02*
M02*
