G04 DesignSpark PCB Gerber Version 12.0 Build 5942*
G04 #@! TF.Part,Single*
G04 #@! TF.FilePolarity,Positive*
%FSLAX35Y35*%
%MOIN*%
G04 #@! TA.AperFunction,ViaDrill*
%ADD127C,0.02400*%
%ADD126C,0.03200*%
G04 #@! TA.AperFunction,ComponentDrill*
%ADD131C,0.03500*%
%ADD129C,0.03937*%
%ADD130C,0.04331*%
G04 #@! TA.AperFunction,MechanicalDrill*
%ADD128C,0.12598*%
G04 #@! TD.AperFunction*
X0Y0D02*
D02*
D126*
X92717Y127809D03*
Y155368D03*
X133098Y199608D03*
X145697Y105762D03*
X146484Y125447D03*
X181602Y172809D03*
Y182809D03*
Y192809D03*
Y202809D03*
X196602Y164817D03*
Y209699D03*
X211602Y172809D03*
Y182809D03*
Y192809D03*
Y202809D03*
X222075D03*
X223650Y164817D03*
D02*
D127*
X144122Y139620D03*
D02*
D128*
X19713Y15998D03*
Y244344D03*
X258295Y15998D03*
Y244344D03*
D02*
D129*
X33098Y39817D03*
Y49817D03*
Y59817D03*
Y69817D03*
Y79817D03*
Y89817D03*
Y112809D03*
Y122809D03*
Y132809D03*
Y142809D03*
X61816Y33247D03*
Y43247D03*
Y53247D03*
Y63247D03*
Y73247D03*
Y83247D03*
Y93247D03*
Y103247D03*
Y113247D03*
Y123247D03*
Y133247D03*
Y143247D03*
Y153247D03*
Y163247D03*
Y173247D03*
X121102Y34309D03*
Y44309D03*
Y54309D03*
Y64309D03*
Y74309D03*
Y84309D03*
Y94309D03*
Y104309D03*
Y114309D03*
Y124309D03*
Y134309D03*
Y144309D03*
Y154309D03*
Y164309D03*
Y174309D03*
X166602Y99935D03*
Y149935D03*
X176602Y99935D03*
Y149935D03*
X186602Y42258D03*
Y99935D03*
Y149935D03*
X196602Y42258D03*
Y99935D03*
Y149935D03*
X206602Y42258D03*
Y99935D03*
Y149935D03*
X216602Y42258D03*
Y99935D03*
Y149935D03*
D02*
D130*
X86789Y229069D03*
X96789D03*
X141602Y37258D03*
X151602D03*
Y232809D03*
X161602Y37258D03*
Y232809D03*
X171602D03*
X220972D03*
X230972D03*
X240972D03*
D02*
D131*
X32705Y170683D03*
Y180683D03*
Y190683D03*
Y200683D03*
Y210683D03*
X0Y0D02*
M02*
