G04 DesignSpark PCB Gerber Version 12.0 Build 5942*
G04 #@! TF.Part,Single*
G04 #@! TF.FileFunction,Legend,Top*
G04 #@! TF.FilePolarity,Positive*
%FSLAX35Y35*%
%MOIN*%
%ADD13C,0.00100*%
%ADD12C,0.00500*%
%ADD10C,0.00787*%
%ADD14C,0.01000*%
%ADD11C,0.01181*%
G04 #@! TD.AperFunction*
X0Y0D02*
D02*
D10*
X7114Y110683D02*
X7409Y110093D01*
X8000Y109797D01*
X9181D01*
X9772Y110093D01*
X10067Y110683D01*
X9772Y111274D01*
X9181Y111569D01*
X8000D01*
X7409Y111864D01*
X7114Y112455D01*
X7409Y113045D01*
X8000Y113341D01*
X9181D01*
X9772Y113045D01*
X10067Y112455D01*
X11839Y113341D02*
X12134Y109797D01*
X13315Y111569D01*
X14496Y109797D01*
X14791Y113341D01*
X7114Y120821D02*
Y124364D01*
X8886D01*
X9476Y124069D01*
X9772Y123774D01*
X10067Y123183D01*
Y122002D01*
X9772Y121411D01*
X9476Y121116D01*
X8886Y120821D01*
X7114D01*
X11839D02*
X13315Y124364D01*
X14791Y120821D01*
X12429Y122297D02*
X14201D01*
X18039Y120821D02*
Y124364D01*
X16563D02*
X19516D01*
X10067Y131648D02*
X9772Y131352D01*
X9181Y131057D01*
X8295D01*
X7705Y131352D01*
X7409Y131648D01*
X7114Y132238D01*
Y133419D01*
X7409Y134010D01*
X7705Y134305D01*
X8295Y134600D01*
X9181D01*
X9772Y134305D01*
X10067Y134010D01*
X11839Y134600D02*
Y131057D01*
X14791D01*
X16563D02*
Y134600D01*
Y132829D02*
X17449D01*
X19516Y134600D01*
X17449Y132829D02*
X19516Y131057D01*
X7902Y67278D02*
Y70821D01*
X9378Y69049D01*
X10854Y70821D01*
Y67278D01*
X12626D02*
Y70821D01*
X14398D01*
X14988Y70526D01*
X15283Y70230D01*
X15579Y69640D01*
Y68459D01*
X15283Y67868D01*
X14988Y67573D01*
X14398Y67278D01*
X12626D01*
X17350D02*
Y70821D01*
X20303D01*
X19713Y69049D02*
X17350D01*
Y67278D02*
X20303D01*
X9969Y79285D02*
X10559Y78990D01*
X10854Y78400D01*
X10559Y77809D01*
X9969Y77514D01*
X7902D01*
Y81057D01*
X9969D01*
X10559Y80762D01*
X10854Y80171D01*
X10559Y79581D01*
X9969Y79285D01*
X7902D01*
X12626Y77514D02*
Y81057D01*
X14693D01*
X15283Y80762D01*
X15579Y80171D01*
X15283Y79581D01*
X14693Y79285D01*
X12626D01*
X14693D02*
X15579Y77514D01*
X17350D02*
Y81057D01*
Y79285D02*
X18236D01*
X20303Y81057D01*
X18236Y79285D02*
X20303Y77514D01*
X7902Y86963D02*
Y90506D01*
X9969D01*
X10559Y90211D01*
X10854Y89620D01*
X10559Y89030D01*
X9969Y88734D01*
X7902D01*
X9969D02*
X10854Y86963D01*
X12626D02*
Y90506D01*
X15579D01*
X14988Y88734D02*
X12626D01*
Y86963D02*
X15579D01*
X17350Y90506D02*
X18827Y86963D01*
X20303Y90506D01*
X9772Y141589D02*
X10362Y141293D01*
X10953D01*
X11543Y141589D01*
X11839Y142179D01*
Y143951D01*
X11543Y144541D01*
X10953Y144837D01*
X10362D01*
X9772Y144541D01*
X9476Y143951D01*
Y142179D01*
X9772Y141589D01*
X11543Y144541D01*
X14201Y144837D02*
X15677Y141293D01*
X17154Y144837D01*
X12134Y37652D02*
X12724Y37356D01*
X13315D01*
X13906Y37652D01*
X14201Y38242D01*
Y40014D01*
X13906Y40604D01*
X13315Y40900D01*
X12724D01*
X12134Y40604D01*
X11839Y40014D01*
Y38242D01*
X12134Y37652D01*
X13906Y40604D01*
X16563Y40900D02*
X18039Y37356D01*
X19516Y40900D01*
X87823Y241982D02*
X88118Y242573D01*
Y243459D01*
X87823Y244049D01*
X87232Y244344D01*
X86937D01*
X86346Y244049D01*
X86051Y243459D01*
Y241982D01*
X84575D01*
Y244344D01*
Y246707D02*
X88118Y248183D01*
X84575Y249659D01*
X88118Y252317D02*
Y253498D01*
Y252907D02*
X84575D01*
Y252317D02*
Y253498D01*
X88118Y256156D02*
X84575D01*
X88118Y259108D01*
X84575D01*
X98846Y243852D02*
X99142Y244443D01*
Y245033D01*
X98846Y245624D01*
X98256Y245919D01*
X96484D01*
X95894Y245624D01*
X95598Y245033D01*
Y244443D01*
X95894Y243852D01*
X96484Y243557D01*
X98256D01*
X98846Y243852D01*
X95894Y245624D01*
X95598Y248281D02*
X99142Y249758D01*
X95598Y251234D01*
X142941Y8124D02*
X143236Y8715D01*
Y9600D01*
X142941Y10191D01*
X142350Y10486D01*
X142055D01*
X141465Y10191D01*
X141169Y9600D01*
Y8124D01*
X139693D01*
Y10486D01*
Y12848D02*
X143236Y14325D01*
X139693Y15801D01*
X152685Y8026D02*
X149142D01*
Y6549D02*
Y9502D01*
X152685Y11274D02*
X149142D01*
X150913D02*
Y14226D01*
X152685D02*
X149142D01*
X152685Y15998D02*
X149142D01*
Y18065D01*
X149437Y18656D01*
X150028Y18951D01*
X150618Y18656D01*
X150913Y18065D01*
Y15998D01*
Y18065D02*
X152685Y18951D01*
Y22199D02*
X149142D01*
Y20722D02*
Y23675D01*
Y25447D02*
X152685D01*
Y28400D01*
X153177Y243852D02*
X153472Y244443D01*
Y245033D01*
X153177Y245624D01*
X152587Y245919D01*
X150815D01*
X150224Y245624D01*
X149929Y245033D01*
Y244443D01*
X150224Y243852D01*
X150815Y243557D01*
X152587D01*
X153177Y243852D01*
X150224Y245624D01*
X149929Y248281D02*
X153472Y249758D01*
X149929Y251234D01*
X163709Y241195D02*
X160165Y242671D01*
X163709Y244148D01*
X162232Y241785D02*
Y243557D01*
X162528Y245919D02*
X161346D01*
X160756Y246215D01*
X160461Y246510D01*
X160165Y247100D01*
Y247691D01*
X160461Y248281D01*
X160756Y248577D01*
X161346Y248872D01*
X162528D01*
X163118Y248577D01*
X163413Y248281D01*
X163709Y247691D01*
Y247100D01*
X163413Y246510D01*
X163118Y246215D01*
X162528Y245919D01*
X160165Y250644D02*
X162823D01*
X163413Y250939D01*
X163709Y251530D01*
Y252711D01*
X163413Y253301D01*
X162823Y253596D01*
X160165D01*
X163709Y256844D02*
X160165D01*
Y255368D02*
Y258321D01*
X164201Y12356D02*
X164496Y12947D01*
Y13537D01*
X164201Y14128D01*
X163610Y14423D01*
X161839D01*
X161248Y14128D01*
X160953Y13537D01*
Y12947D01*
X161248Y12356D01*
X161839Y12061D01*
X163610D01*
X164201Y12356D01*
X161248Y14128D01*
X160953Y16785D02*
X164496Y18262D01*
X160953Y19738D01*
X173650Y243557D02*
X173945Y244148D01*
Y245033D01*
X173650Y245624D01*
X173059Y245919D01*
X172764D01*
X172173Y245624D01*
X171878Y245033D01*
Y243557D01*
X170402D01*
Y245919D01*
Y248281D02*
X173945Y249758D01*
X170402Y251234D01*
X188020Y6549D02*
X188610Y6844D01*
X188906Y7435D01*
Y8616D01*
X188610Y9207D01*
X188020Y9502D01*
X187429Y9207D01*
X187134Y8616D01*
Y7435D01*
X186839Y6844D01*
X186248Y6549D01*
X185657Y6844D01*
X185362Y7435D01*
Y8616D01*
X185657Y9207D01*
X186248Y9502D01*
X188315Y14226D02*
X188610Y13931D01*
X188906Y13341D01*
Y12455D01*
X188610Y11864D01*
X188315Y11569D01*
X187724Y11274D01*
X186543D01*
X185953Y11569D01*
X185657Y11864D01*
X185362Y12455D01*
Y13341D01*
X185657Y13931D01*
X185953Y14226D01*
X185362Y15998D02*
X188906D01*
Y18951D01*
X196681Y5762D02*
X197272Y6057D01*
X197567Y6648D01*
Y7829D01*
X197272Y8419D01*
X196681Y8715D01*
X196091Y8419D01*
X195795Y7829D01*
Y6648D01*
X195500Y6057D01*
X194909Y5762D01*
X194319Y6057D01*
X194024Y6648D01*
Y7829D01*
X194319Y8419D01*
X194909Y8715D01*
X197567Y10486D02*
X194024D01*
Y12258D01*
X194319Y12848D01*
X194614Y13144D01*
X195205Y13439D01*
X196386D01*
X196976Y13144D01*
X197272Y12848D01*
X197567Y12258D01*
Y10486D01*
Y15211D02*
X194024Y16687D01*
X197567Y18163D01*
X196091Y15801D02*
Y17573D01*
X206720Y8124D02*
X207016Y8715D01*
Y9600D01*
X206720Y10191D01*
X206130Y10486D01*
X205835D01*
X205244Y10191D01*
X204949Y9600D01*
Y8124D01*
X203472D01*
Y10486D01*
Y12848D02*
X207016Y14325D01*
X203472Y15801D01*
X217350Y243852D02*
X217646Y244443D01*
Y245033D01*
X217350Y245624D01*
X216760Y245919D01*
X214988D01*
X214398Y245624D01*
X214102Y245033D01*
Y244443D01*
X214398Y243852D01*
X214988Y243557D01*
X216760D01*
X217350Y243852D01*
X214398Y245624D01*
X214102Y248281D02*
X217646Y249758D01*
X214102Y251234D01*
X219319Y9994D02*
X219614Y10585D01*
Y11175D01*
X219319Y11766D01*
X218728Y12061D01*
X216957D01*
X216366Y11766D01*
X216071Y11175D01*
Y10585D01*
X216366Y9994D01*
X216957Y9699D01*
X218728D01*
X219319Y9994D01*
X216366Y11766D01*
X216071Y14423D02*
X219614Y15900D01*
X216071Y17376D01*
X232016Y243262D02*
X232311Y243852D01*
X232902Y244148D01*
X233492Y243852D01*
X233787Y243262D01*
Y241195D01*
X230244D01*
Y243262D01*
X230539Y243852D01*
X231130Y244148D01*
X231720Y243852D01*
X232016Y243262D01*
Y241195D01*
X232606Y245919D02*
X231425D01*
X230835Y246215D01*
X230539Y246510D01*
X230244Y247100D01*
Y247691D01*
X230539Y248281D01*
X230835Y248577D01*
X231425Y248872D01*
X232606D01*
X233197Y248577D01*
X233492Y248281D01*
X233787Y247691D01*
Y247100D01*
X233492Y246510D01*
X233197Y246215D01*
X232606Y245919D01*
X230244Y250644D02*
X232902D01*
X233492Y250939D01*
X233787Y251530D01*
Y252711D01*
X233492Y253301D01*
X232902Y253596D01*
X230244D01*
X233787Y256844D02*
X230244D01*
Y255368D02*
Y258321D01*
X242547Y243557D02*
X242843Y244148D01*
Y245033D01*
X242547Y245624D01*
X241957Y245919D01*
X241661D01*
X241071Y245624D01*
X240776Y245033D01*
Y243557D01*
X239299D01*
Y245919D01*
Y248281D02*
X242843Y249758D01*
X239299Y251234D01*
D02*
D11*
X245057Y42524D02*
X236199D01*
Y38833D02*
Y46215D01*
X245057Y50644D02*
X239152D01*
X241366D02*
X239890Y51382D01*
X239152Y52858D01*
Y54335D01*
X239890Y55811D01*
Y62455D02*
X239152Y63931D01*
Y66146D01*
X239890Y67622D01*
X241366Y68360D01*
X243581D01*
X244319Y67622D01*
X245057Y66146D01*
Y64669D01*
X244319Y63193D01*
X243581Y62455D01*
X242843D01*
X242104Y63193D01*
X241366Y64669D01*
Y66146D01*
X242104Y67622D01*
X242843Y68360D01*
X243581D02*
X245057D01*
Y74266D02*
X236199D01*
X242104D02*
Y76480D01*
X239152Y80171D01*
X242104Y76480D02*
X245057Y80171D01*
Y89768D02*
X236199D01*
Y86077D02*
Y93459D01*
X245057Y97888D02*
X239152D01*
X241366D02*
X239890Y98626D01*
X239152Y100102D01*
Y101579D01*
X239890Y103055D01*
X245057Y112652D02*
X239152D01*
X236937D02*
X245057Y121510D02*
X236199D01*
X242104D02*
Y123724D01*
X239152Y127415D01*
X242104Y123724D02*
X245057Y127415D01*
X244319Y139226D02*
X245057Y138488D01*
Y137012D01*
Y135535D01*
X244319Y134059D01*
X242843Y133321D01*
X240628D01*
X239890Y134059D01*
X239152Y135535D01*
Y137012D01*
X239890Y138488D01*
X240628Y139226D01*
X241366D01*
X242104Y138488D01*
X242843Y137012D01*
Y135535D01*
X242104Y134059D01*
X241366Y133321D01*
X236199Y156943D02*
X245057Y160634D01*
X236199Y164325D01*
X245057Y172445D02*
X236199D01*
X242104Y168754D01*
Y174659D01*
D02*
D12*
X27980Y100550D02*
X28293Y99925D01*
X28918Y99613D01*
X30168D01*
X30793Y99925D01*
X31106Y100550D01*
X30793Y101175D01*
X30168Y101488D01*
X28918D01*
X28293Y101800D01*
X27980Y102425D01*
X28293Y103050D01*
X28918Y103363D01*
X30168D01*
X30793Y103050D01*
X31106Y102425D01*
X32980Y99613D02*
Y103363D01*
Y101488D02*
X33918D01*
X36106Y103363D01*
X33918Y101488D02*
X36106Y99613D01*
X38606D02*
X39856D01*
X39230D02*
Y103363D01*
X38606Y102738D01*
X29949Y152309D02*
X30261Y151996D01*
X30886Y151683D01*
X31511Y151996D01*
X31824Y152309D01*
Y155433D01*
X32449D01*
X31824D02*
X30574D01*
X34949Y151996D02*
X35574Y151683D01*
X36511D01*
X37136Y151996D01*
X37449Y152621D01*
Y152933D01*
X37136Y153559D01*
X36511Y153871D01*
X34949D01*
Y155433D01*
X37449D01*
X41366Y217179D02*
Y163636D01*
X42547Y149305D02*
Y106785D01*
X42764Y95900D02*
Y33695D01*
X44704Y218620D02*
X44392Y218307D01*
X44079Y217683D01*
X44392Y217057D01*
X44704Y216745D01*
X47829D01*
Y216120D01*
Y216745D02*
Y217995D01*
X44079Y212995D02*
Y211745D01*
Y212370D02*
X47829D01*
X47204Y212995D01*
X43945Y217120D02*
Y163636D01*
X21110D01*
Y214620D01*
X23610Y217120D01*
X43945D01*
X44339Y96254D02*
Y33380D01*
X21504D01*
Y93754D01*
X24004Y96254D01*
X44339D01*
Y149246D02*
Y106785D01*
X21504D01*
Y146746D01*
X24004Y149246D01*
X44339D01*
X56602Y22809D02*
X126602D01*
Y182809D01*
X56602D01*
Y22809D01*
X66816Y28247D02*
Y178247D01*
X56816D01*
Y28247D01*
X66816D01*
X69602Y52559D02*
X114102D01*
Y19059D01*
X103602D01*
Y11559D01*
X80102D01*
Y19059D01*
X69602D01*
Y52559D01*
X71102Y144559D02*
Y136559D01*
X76102D01*
Y144559D01*
X71102D01*
X72502Y124309D02*
X84002D01*
Y131309D01*
X72502D01*
Y124309D01*
X75102Y107809D02*
X88602D01*
Y114309D01*
X75102D01*
Y107809D01*
X76602Y187059D02*
X106602D01*
Y167059D01*
X76602D01*
Y187059D01*
X80318Y19902D02*
Y34302D01*
X73918D01*
Y19902D01*
X80318D01*
X80502Y149109D02*
Y134709D01*
X86902D01*
Y149109D01*
X80502D01*
X82002Y91009D02*
Y83009D01*
X87002D01*
Y91009D01*
X82002D01*
X88102Y141309D02*
X115102D01*
Y156309D01*
X88102D01*
Y141309D01*
X94102Y24309D02*
Y32309D01*
X89102D01*
Y24309D01*
X94102D01*
X98102Y19059D02*
X85602D01*
X100352Y83059D02*
Y91059D01*
X95352D01*
Y83059D01*
X100352D01*
X102665Y219285D02*
X80165D01*
X103102Y39309D02*
Y78309D01*
X79602D01*
Y39309D01*
X103102D01*
X103226Y217829D02*
X80165D01*
Y240663D01*
X100726D01*
X103226Y238163D01*
Y217829D01*
X107114Y234883D02*
X107427Y234571D01*
X108052Y234258D01*
X108677Y234571D01*
X108989Y234883D01*
Y238008D01*
X109614D01*
X108989D02*
X107739D01*
X113052Y236133D02*
X113677D01*
X114302Y236446D01*
X114614Y237071D01*
X114302Y237696D01*
X113677Y238008D01*
X113052D01*
X112427Y237696D01*
X112114Y237071D01*
X112427Y236446D01*
X113052Y236133D01*
X112427Y235821D01*
X112114Y235196D01*
X112427Y234571D01*
X113052Y234258D01*
X113677D01*
X114302Y234571D01*
X114614Y235196D01*
X114302Y235821D01*
X113677Y236133D01*
X110802Y114309D02*
X97302D01*
Y107809D01*
X110802D01*
Y114309D01*
X111102Y24309D02*
Y32309D01*
X106102D01*
Y24309D01*
X111102D01*
X126102Y29309D02*
Y179309D01*
X116102D01*
Y29309D01*
X126102D01*
X131524Y233471D02*
Y237221D01*
X133711D01*
X134336Y236909D01*
X134649Y236283D01*
X134336Y235659D01*
X133711Y235346D01*
X131524D01*
X136524Y237221D02*
Y233471D01*
X139649D01*
X142149D02*
X143399D01*
X142774D02*
Y237221D01*
X142149Y236596D01*
X133602Y59309D02*
X149602D01*
Y66309D01*
X133602D01*
Y59309D01*
Y69309D02*
X149602D01*
Y76309D01*
X133602D01*
Y69309D01*
X136602Y42258D02*
Y47258D01*
X166602D01*
Y42258D01*
X143102Y205809D02*
Y189809D01*
X150102D01*
Y205809D01*
X143102D01*
X145685Y184526D02*
X145372Y184839D01*
X145059Y185464D01*
Y186402D01*
X145372Y187026D01*
X145685Y187339D01*
X146309Y187652D01*
X147559D01*
X148185Y187339D01*
X148497Y187026D01*
X148809Y186402D01*
Y185464D01*
X148497Y184839D01*
X148185Y184526D01*
X145059Y180152D02*
Y182652D01*
X147247Y180464D01*
X147872Y180152D01*
X148497Y180464D01*
X148809Y181089D01*
Y182026D01*
X148497Y182652D01*
X155296Y187652D02*
X159046D01*
Y185464D01*
X158733Y184839D01*
X158108Y184526D01*
X157483Y184839D01*
X157171Y185464D01*
Y187652D01*
Y185464D02*
X155296Y184526D01*
X155608Y182339D02*
X155296Y181714D01*
Y181089D01*
X155608Y180464D01*
X156233Y180152D01*
X156858Y180464D01*
X157171Y181089D01*
Y181714D01*
Y181089D02*
X157483Y180464D01*
X158108Y180152D01*
X158733Y180464D01*
X159046Y181089D01*
Y181714D01*
X158733Y182339D01*
X155165Y57809D02*
X151415D01*
Y59996D01*
X151727Y60622D01*
X152352Y60934D01*
X152977Y60622D01*
X153290Y59996D01*
Y57809D01*
Y59996D02*
X155165Y60934D01*
X154852Y62809D02*
X155165Y63434D01*
Y64372D01*
X154852Y64996D01*
X154227Y65309D01*
X153915D01*
X153290Y64996D01*
X152977Y64372D01*
Y62809D01*
X151415D01*
Y65309D01*
X154540Y70934D02*
X154852Y70622D01*
X155165Y69996D01*
Y69059D01*
X154852Y68434D01*
X154540Y68122D01*
X153915Y67809D01*
X152665D01*
X152040Y68122D01*
X151727Y68434D01*
X151415Y69059D01*
Y69996D01*
X151727Y70622D01*
X152040Y70934D01*
X154227Y72809D02*
X153602Y73122D01*
X153290Y73746D01*
Y74372D01*
X153602Y74996D01*
X154227Y75309D01*
X154852Y74996D01*
X155165Y74372D01*
Y73746D01*
X154852Y73122D01*
X154227Y72809D01*
X153290D01*
X152352Y73122D01*
X151727Y73746D01*
X151415Y74372D01*
X160102Y189809D02*
Y205809D01*
X153102D01*
Y189809D01*
X160102D01*
X160972Y133537D02*
X162724D01*
Y115230D01*
X161031D01*
Y115093D01*
X165532Y186864D02*
X169282D01*
Y184677D01*
X168970Y184052D01*
X168344Y183739D01*
X167720Y184052D01*
X167407Y184677D01*
Y186864D01*
Y184677D02*
X165532Y183739D01*
Y181239D02*
Y179989D01*
Y180614D02*
X169282D01*
X168657Y181239D01*
X166957Y29372D02*
X167269Y29059D01*
X167894Y28746D01*
X168519Y29059D01*
X168832Y29372D01*
Y32496D01*
X169457D01*
X168832D02*
X167582D01*
X173519Y28746D02*
Y32496D01*
X171957Y29996D01*
X174457D01*
X170102Y189809D02*
Y205809D01*
X163102D01*
Y189809D01*
X170102D01*
X170894Y56143D02*
X171206Y55831D01*
X171831Y55518D01*
X172456Y55831D01*
X172769Y56143D01*
Y59268D01*
X173394D01*
X172769D02*
X171519D01*
X176519Y55518D02*
X177769D01*
X177144D02*
Y59268D01*
X176519Y58643D01*
X181519Y55518D02*
X182769D01*
X182144D02*
Y59268D01*
X181519Y58643D01*
X171681Y210449D02*
Y207637D01*
X171994Y207012D01*
X172619Y206699D01*
X173869D01*
X174494Y207012D01*
X174806Y207637D01*
Y210449D01*
X179181Y206699D02*
X176681D01*
X178869Y208887D01*
X179181Y209512D01*
X178869Y210137D01*
X178244Y210449D01*
X177306D01*
X176681Y210137D01*
X176602Y227809D02*
Y222809D01*
X146602D01*
Y227809D01*
X180106Y51707D02*
X222626D01*
X180165Y53498D02*
X222626D01*
Y30663D01*
X182665D01*
X180165Y33163D01*
Y53498D01*
X182705Y220317D02*
X183017Y220004D01*
X183642Y219691D01*
X184267Y220004D01*
X184580Y220317D01*
Y223441D01*
X185205D01*
X184580D02*
X183330D01*
X190205Y219691D02*
X187705D01*
X189892Y221879D01*
X190205Y222504D01*
X189892Y223129D01*
X189267Y223441D01*
X188330D01*
X187705Y223129D01*
X191602Y170309D02*
Y205309D01*
X194102D01*
X196602Y202809D01*
X199102Y205309D01*
X201602D01*
Y170309D01*
X191602D01*
X218531Y252600D02*
X218844Y252287D01*
X219469Y251975D01*
X220094Y252287D01*
X220407Y252600D01*
Y255725D01*
X221031D01*
X220407D02*
X219157D01*
X223844Y252287D02*
X224469Y251975D01*
X225094D01*
X225719Y252287D01*
X226031Y252913D01*
X225719Y253537D01*
X225094Y253850D01*
X224469D01*
X225094D02*
X225719Y254163D01*
X226031Y254787D01*
X225719Y255413D01*
X225094Y255725D01*
X224469D01*
X223844Y255413D01*
X222449Y92435D02*
X160756D01*
Y158341D01*
X222449D01*
Y120560D01*
X222429D01*
Y119310D01*
X222449D01*
Y92435D01*
X223949Y72842D02*
Y75654D01*
X223636Y76280D01*
X223011Y76592D01*
X221761D01*
X221136Y76280D01*
X220824Y75654D01*
Y72842D01*
X218324Y76592D02*
X217074D01*
X217699D02*
Y72842D01*
X218324Y73467D01*
X224056Y213218D02*
X224368Y212905D01*
X224681Y212280D01*
Y211343D01*
X224368Y210718D01*
X224056Y210405D01*
X223431Y210093D01*
X222181D01*
X221556Y210405D01*
X221243Y210718D01*
X220931Y211343D01*
Y212280D01*
X221243Y212905D01*
X221556Y213218D01*
X224368Y215405D02*
X224681Y216030D01*
Y216655D01*
X224368Y217280D01*
X223743Y217593D01*
X223118Y217280D01*
X222806Y216655D01*
Y216030D01*
Y216655D02*
X222493Y217280D01*
X221868Y217593D01*
X221243Y217280D01*
X220931Y216655D01*
Y216030D01*
X221243Y215405D01*
X227461Y189309D02*
X243461D01*
Y196309D01*
X227461D01*
Y189309D01*
Y199309D02*
X243461D01*
Y206309D01*
X227461D01*
Y199309D01*
X243461Y216309D02*
X227461D01*
Y209309D01*
X243461D01*
Y216309D01*
X245972Y227809D02*
Y222809D01*
X215972D01*
Y227809D01*
X249240Y226384D02*
Y230134D01*
X251428D01*
X252053Y229822D01*
X252365Y229197D01*
X252053Y228572D01*
X251428Y228259D01*
X249240D01*
X254240Y230134D02*
Y226384D01*
X257365D01*
X261740D02*
X259240D01*
X261428Y228572D01*
X261740Y229197D01*
X261428Y229822D01*
X260803Y230134D01*
X259865D01*
X259240Y229822D01*
X249023Y187809D02*
X245273D01*
Y189996D01*
X245585Y190622D01*
X246211Y190934D01*
X246835Y190622D01*
X247148Y189996D01*
Y187809D01*
Y189996D02*
X249023Y190934D01*
Y195309D02*
Y192809D01*
X246835Y194996D01*
X246211Y195309D01*
X245585Y194996D01*
X245273Y194372D01*
Y193434D01*
X245585Y192809D01*
X249023Y199463D02*
X245273D01*
Y201650D01*
X245585Y202275D01*
X246211Y202588D01*
X246835Y202275D01*
X247148Y201650D01*
Y199463D01*
Y201650D02*
X249023Y202588D01*
Y206025D02*
X245273D01*
X247773Y204463D01*
Y206963D01*
D02*
D13*
X76602Y38882D02*
Y32238D01*
X77341Y30762D01*
X78817Y30024D01*
X81770D01*
X83246Y30762D01*
X83984Y32238D01*
Y38882D01*
X88413Y32238D02*
X89152Y30762D01*
X90628Y30024D01*
X93581D01*
X95057Y30762D01*
X95795Y32238D01*
X95057Y33715D01*
X93581Y34453D01*
X90628D01*
X89152Y35191D01*
X88413Y36667D01*
X89152Y38144D01*
X90628Y38882D01*
X93581D01*
X95057Y38144D01*
X95795Y36667D01*
X105392Y34453D02*
X106868Y33715D01*
X107606Y32238D01*
X106868Y30762D01*
X105392Y30024D01*
X100224D01*
Y38882D01*
X105392D01*
X106868Y38144D01*
X107606Y36667D01*
X106868Y35191D01*
X105392Y34453D01*
X100224D01*
D02*
D14*
X136602Y32258D02*
X166602D01*
Y42258D01*
X136602D01*
Y32258D01*
X176602Y237809D02*
X146602D01*
Y227809D01*
X176602D01*
Y237809D01*
X245972D02*
X215972D01*
Y227809D01*
X245972D01*
Y237809D01*
X0Y0D02*
M02*
