G04 DesignSpark PCB Gerber Version 12.0 Build 5942*
G04 #@! TF.Part,Single*
G04 #@! TF.FileFunction,Legend,Bot*
G04 #@! TF.FilePolarity,Positive*
%FSLAX35Y35*%
%MOIN*%
%ADD12C,0.00500*%
G04 #@! TD.AperFunction*
X0Y0D02*
D02*
D12*
X75279Y162942D02*
X74967Y162630D01*
X74654Y162004D01*
Y161067D01*
X74967Y160442D01*
X75279Y160130D01*
X75904Y159817D01*
X77154D01*
X77779Y160130D01*
X78092Y160442D01*
X78404Y161067D01*
Y162004D01*
X78092Y162630D01*
X77779Y162942D01*
X74654Y165442D02*
Y166692D01*
Y166067D02*
X78404D01*
X77779Y165442D01*
X96217Y161317D02*
X80217D01*
Y168317D01*
X96217D01*
Y161317D01*
X170102Y136596D02*
Y120596D01*
X163102D01*
Y136596D01*
X170102D01*
X168477Y115659D02*
X168790Y115346D01*
X169415Y115034D01*
X170352D01*
X170977Y115346D01*
X171290Y115659D01*
X171602Y116284D01*
Y117534D01*
X171290Y118159D01*
X170977Y118472D01*
X170352Y118784D01*
X169415D01*
X168790Y118472D01*
X168477Y118159D01*
X166602Y115346D02*
X165977Y115034D01*
X165040D01*
X164415Y115346D01*
X164102Y115972D01*
Y116284D01*
X164415Y116909D01*
X165040Y117222D01*
X166602D01*
Y118784D01*
X164102D01*
X190603Y197876D02*
X190916Y197563D01*
X191541Y197250D01*
X192478D01*
X193103Y197563D01*
X193416Y197876D01*
X193728Y198500D01*
Y199750D01*
X193416Y200376D01*
X193103Y200688D01*
X192478Y201000D01*
X191541D01*
X190916Y200688D01*
X190603Y200376D01*
X187166Y197250D02*
Y201000D01*
X188728Y198500D01*
X186228D01*
X200102Y195809D02*
Y179809D01*
X193102D01*
Y195809D01*
X200102D01*
X0Y0D02*
M02*
